<svg height="1870" width="720" xmlns="http://www.w3.org/2000/svg">
<rect height="1870" fill="#555" width="720"></rect>
<text fill="#7f7" font-family="Courier New" font-size="12" xml:space="preserve">
<tspan x="10" y="26"></tspan>
<tspan x="10" y="42">&gt; npmdoc-readdirp@0.0.1 test /home/travis/build/npmdoc/node-npmdoc-readdirp</tspan>
<tspan x="10" y="58">&gt; (set -e; export PORT=$(utility2 shServerPortRandom); utility2 test test.js)</tspan>
<tspan x="10" y="74"></tspan>
<tspan x="10" y="90"></tspan>
<tspan x="10" y="106">[MODE_BUILD=npmTest] - 2017-04-07T23:00:50Z - npm-testing /home/travis/build/npmdoc/node-npmdoc-\</tspan>
<tspan x="10" y="122">readdirp</tspan>
<tspan x="10" y="138"></tspan>
<tspan x="10" y="154"></tspan>
<tspan x="10" y="170">covering $ /home/travis/.nvm/versions/node/v6.10.2/bin/node /home/travis/build/npmdoc/node-npmdo\</tspan>
<tspan x="10" y="186">c-readdirp/test.js</tspan>
<tspan x="10" y="202">merging file:///home/travis/build/npmdoc/node-npmdoc-readdirp/tmp/build/test-report.json to test\</tspan>
<tspan x="10" y="218">-report</tspan>
<tspan x="10" y="234">&gt; server listening on http-port 52592</tspan>
<tspan x="10" y="250">created apidoc file:///home/travis/build/npmdoc/node-npmdoc-readdirp/tmp/build/apidoc.html</tspan>
<tspan x="10" y="266"></tspan>
<tspan x="10" y="282"></tspan>
<tspan x="10" y="298">browserTest - created electron entry-page /home/travis/build/npmdoc/node-npmdoc-readdirp/tmp/ele\</tspan>
<tspan x="10" y="314">ctron.15b4aa61a5e0.b34e053f38cb1.html</tspan>
<tspan x="10" y="330"></tspan>
<tspan x="10" y="346">[node test-case 1 of 6 passed] - testCase_buildLib_default</tspan>
<tspan x="10" y="362">[node test-case 2 of 6 passed] - testCase_buildReadme_default</tspan>
<tspan x="10" y="378">[node test-case 3 of 6 passed] - testCase_buildTest_default</tspan>
<tspan x="10" y="394"></tspan>
<tspan x="10" y="410">browserTest - created electron entry-page /home/travis/build/npmdoc/node-npmdoc-readdirp/tmp/ele\</tspan>
<tspan x="10" y="426">ctron.15b4aa61a890.f12f7d729c2f2.html</tspan>
<tspan x="10" y="442"></tspan>
<tspan x="10" y="458">Xlib:  extension "RANDR" missing on display ":99.0".</tspan>
<tspan x="10" y="474">Xlib:  extension "RANDR" missing on display ":99.0".</tspan>
<tspan x="10" y="490">merging file:///home/travis/build/npmdoc/node-npmdoc-readdirp/tmp/build/test-report.json to test\</tspan>
<tspan x="10" y="506">-report</tspan>
<tspan x="10" y="522">Xlib:  extension "RANDR" missing on display ":99.0".</tspan>
<tspan x="10" y="538">[4918:0407/230052:WARNING:audio_manager.cc(314)] Multiple instances of AudioManager detected</tspan>
<tspan x="10" y="554">[4918:0407/230052:WARNING:audio_manager.cc(275)] Multiple instances of AudioManager detected</tspan>
<tspan x="10" y="570">[4951:0407/230052:ERROR:sandbox_linux.cc(343)] InitializeSandbox() called with multiple threads \</tspan>
<tspan x="10" y="586">in process gpu-process. </tspan>
<tspan x="10" y="602">&gt; server listening on http-port 55353</tspan>
<tspan x="10" y="618">[4918:0407/230052:ERROR:browser_gpu_channel_host_factory.cc(131)] Failed to create channel.</tspan>
<tspan x="10" y="634">merging file:///home/travis/build/npmdoc/node-npmdoc-readdirp/tmp/build/test-report.json to test\</tspan>
<tspan x="10" y="650">-report</tspan>
<tspan x="10" y="666">Xlib:  extension "RANDR" missing on display ":99.0".</tspan>
<tspan x="10" y="682">[4923:0407/230052:WARNING:audio_manager.cc(314)] Multiple instances of AudioManager detected</tspan>
<tspan x="10" y="698">[4923:0407/230052:WARNING:audio_manager.cc(275)] Multiple instances of AudioManager detected</tspan>
<tspan x="10" y="714">[4986:0407/230052:ERROR:sandbox_linux.cc(343)] InitializeSandbox() called with multiple threads \</tspan>
<tspan x="10" y="730">in process gpu-process. </tspan>
<tspan x="10" y="746"></tspan>
<tspan x="10" y="762">browserTest - opened url /home/travis/build/npmdoc/node-npmdoc-readdirp/tmp/build/apidoc.html</tspan>
<tspan x="10" y="778"></tspan>
<tspan x="10" y="794"></tspan>
<tspan x="10" y="810">browserTest - opened url http://127.0.0.1:52592?modeTest=1</tspan>
<tspan x="10" y="826"></tspan>
<tspan x="10" y="842">[4923:0407/230054:INFO:CONSOLE(249)] "----------|-----------|-----------|-----------|-----------\</tspan>
<tspan x="10" y="858">|</tspan>
<tspan x="10" y="874">File      |   % Stmts |% Branches |   % Funcs |   % Lines |</tspan>
<tspan x="10" y="890">----------|-----------|-----------|-----------|-----------|</tspan>
<tspan x="10" y="906">----------|-----------|-----------|-----------|-----------|</tspan>
<tspan x="10" y="922">All files |       100 |       100 |       100 |       100 |</tspan>
<tspan x="10" y="938">----------|-----------|-----------|-----------|-----------|</tspan>
<tspan x="10" y="954">", source: file:///home/travis/build/npmdoc/node-npmdoc-readdirp/tmp/electron.15b4aa61a890.f12f7\</tspan>
<tspan x="10" y="970">d729c2f2.html (249)</tspan>
<tspan x="10" y="986">[4923:0407/230054:INFO:CONSOLE(249)] "created coverage file:///tmp/build/coverage.html/index.htm\</tspan>
<tspan x="10" y="1002">l", source: file:///home/travis/build/npmdoc/node-npmdoc-readdirp/tmp/electron.15b4aa61a890.f12f\</tspan>
<tspan x="10" y="1018">7d729c2f2.html (249)</tspan>
<tspan x="10" y="1034">[node test-case 4 of 6 passed] - testCase_buildApp_default</tspan>
<tspan x="10" y="1050"></tspan>
<tspan x="10" y="1066">browserTest - exit-code 1 - /home/travis/build/npmdoc/node-npmdoc-readdirp/tmp/build/apidoc.html</tspan>
<tspan x="10" y="1082"></tspan>
<tspan x="10" y="1098">[node test-case 5 of 6 passed] - testCase_buildApidoc_default</tspan>
<tspan x="10" y="1114"></tspan>
<tspan x="10" y="1130">browserTest - created screenCapture file:///home/travis/build/npmdoc/node-npmdoc-readdirp/tmp/bu\</tspan>
<tspan x="10" y="1146">ild/screenCapture.%2F.png</tspan>
<tspan x="10" y="1162"></tspan>
<tspan x="10" y="1178">browserTest - created screenCapture file:///home/travis/build/npmdoc/node-npmdoc-readdirp/tmp/bu\</tspan>
<tspan x="10" y="1194">ild/screenCapture.%2F.html</tspan>
<tspan x="10" y="1210"></tspan>
<tspan x="10" y="1226">browserTest - exit-code 0 - http://127.0.0.1:52592?modeTest=1</tspan>
<tspan x="10" y="1242"></tspan>
<tspan x="10" y="1258"></tspan>
<tspan x="10" y="1274">browserTest - merged coverage from /home/travis/build/npmdoc/node-npmdoc-readdirp/tmp/coverage.%\</tspan>
<tspan x="10" y="1290">2F.json</tspan>
<tspan x="10" y="1306"></tspan>
<tspan x="10" y="1322"></tspan>
<tspan x="10" y="1338">browserTest - merging test-report from /home/travis/build/npmdoc/node-npmdoc-readdirp/tmp/test-r\</tspan>
<tspan x="10" y="1354">eport.%2F.json</tspan>
<tspan x="10" y="1370"></tspan>
<tspan x="10" y="1386">[node test-case 6 of 6 passed] - testCase_webpage_default</tspan>
<tspan x="10" y="1402">-----------------------------|-----------|-----------|-----------|-----------|</tspan>
<tspan x="10" y="1418">File                         |   % Stmts |% Branches |   % Funcs |   % Lines |</tspan>
<tspan x="10" y="1434">-----------------------------|-----------|-----------|-----------|-----------|</tspan>
<tspan x="10" y="1450">   node-npmdoc-readdirp/     |       100 |       100 |       100 |       100 |</tspan>
<tspan x="10" y="1466">      example.js             |       100 |       100 |       100 |       100 |</tspan>
<tspan x="10" y="1482">      lib.npmdoc_readdirp.js |       100 |       100 |       100 |       100 |</tspan>
<tspan x="10" y="1498">      test.js                |       100 |       100 |       100 |       100 |</tspan>
<tspan x="10" y="1514">-----------------------------|-----------|-----------|-----------|-----------|</tspan>
<tspan x="10" y="1530">All files                    |       100 |       100 |       100 |       100 |</tspan>
<tspan x="10" y="1546">-----------------------------|-----------|-----------|-----------|-----------|</tspan>
<tspan x="10" y="1562"></tspan>
<tspan x="10" y="1578">created coverage file:///home/travis/build/npmdoc/node-npmdoc-readdirp/tmp/build/coverage.html/i\</tspan>
<tspan x="10" y="1594">ndex.html</tspan>
<tspan x="10" y="1610">merging file:///home/travis/build/npmdoc/node-npmdoc-readdirp/tmp/build/test-report.json to test\</tspan>
<tspan x="10" y="1626">-report</tspan>
<tspan x="10" y="1642"></tspan>
<tspan x="10" y="1658">-------------------------------------------------------</tspan>
<tspan x="10" y="1674">| test-report - buildNpmdoc - node - linux v6.10.2 - 2017-04-07T23:00:30.544Z</tspan>
<tspan x="10" y="1690">|   35785 ms            0 failed        6 passed      |</tspan>
<tspan x="10" y="1706">-------------------------------------------------------</tspan>
<tspan x="10" y="1722"></tspan>
<tspan x="10" y="1738">created test-report file:///home/travis/build/npmdoc/node-npmdoc-readdirp/tmp/build/test-report.\</tspan>
<tspan x="10" y="1754">html</tspan>
<tspan x="10" y="1770"></tspan>
<tspan x="10" y="1786"></tspan>
<tspan x="10" y="1802">npmTest - 0 failed tests</tspan>
<tspan x="10" y="1818"></tspan>
<tspan x="10" y="1834"></tspan>
<tspan x="10" y="1850">[MODE_BUILD=npmTest] - 2017-04-07T23:01:09Z - EXIT_CODE - 0</tspan>
</text>
</svg>
